crouch4_gait																	
version=1																	
nRows=101																	
nColumns=18																	
inDegrees=yes																	
endheader																	
time	pelvis_list	pelvis_rotation	pelvis_tilt	hip_flexion_r	hip_adduction_r	hip_rotation_r	knee_angle_r	ankle_angle_r	hip_flexion_l	hip_adduction_l	hip_rotation_l	knee_angle_l	ankle_angle_l	pelvis_ty	lumbar_bending	lumbar_rotation	lumbar_extension
0	-22.39	45.37	-15.17	52.77	-19.76	10.12	-48.76	20.45	33.77	-9.12	23.15	-45.12	2.01	0.96	22.39	-45.37	0.17
0.01	-22.365	44.995	-15.12	52.965	-18.72	10.43	-49.685	20.78	33.81	-9.695	23.67	-45.82	1.64	0.96	22.365	-44.995	0.12
0.02	-22.34	44.62	-15.07	53.16	-17.68	10.74	-50.61	21.11	33.85	-10.27	24.19	-46.52	1.27	0.96	22.34	-44.62	0.07
0.03	-22.38	44.385	-14.965	53.35	-16.875	10.87	-51.64	21.51	33.975	-10.815	25.24	-47.21	0.81	0.96	22.38	-44.385	-0.035
0.04	-22.42	44.15	-14.86	53.54	-16.07	11	-52.67	21.91	34.1	-11.36	26.29	-47.9	0.35	0.96	22.42	-44.15	-0.14
0.05	-22.45	44.125	-14.745	53.57	-15.565	11.015	-53.54	22.36	34.485	-11.68	27.655	-48.595	0.01	0.96	22.45	-44.125	-0.255
0.06	-22.48	44.1	-14.63	53.6	-15.06	11.03	-54.41	22.81	34.87	-12	29.02	-49.29	-0.33	0.96	22.48	-44.1	-0.37
0.07	-22.475	44.225	-14.53	53.415	-14.75	10.94	-55.01	23.245	35.65	-11.91	29.89	-50.155	-0.375	0.96	22.475	-44.225	-0.47
0.08	-22.47	44.35	-14.43	53.23	-14.44	10.85	-55.61	23.68	36.43	-11.82	30.76	-51.02	-0.42	0.96	22.47	-44.35	-0.57
0.09	-22.42	44.455	-14.335	52.855	-14.12	10.63	-55.96	24.025	37.465	-11.51	30.875	-52.105	-0.255	0.96	22.42	-44.455	-0.665
0.1	-22.37	44.56	-14.24	52.48	-13.8	10.41	-56.31	24.37	38.5	-11.2	30.99	-53.19	-0.09	0.96	22.37	-44.56	-0.76
0.11	-22.34	44.39	-14.115	51.96	-13.125	10.025	-56.455	24.565	39.685	-10.81	30.67	-54.455	0.22	0.96	22.34	-44.39	-0.885
0.12	-22.31	44.22	-13.99	51.44	-12.45	9.64	-56.6	24.76	40.87	-10.42	30.35	-55.72	0.53	0.96	22.31	-44.22	-1.01
0.13	-22.29	43.68	-13.935	50.83	-11.435	9.28	-56.545	25.02	42.115	-9.98	30.01	-57.08	0.92	0.96	22.29	-43.68	-1.065
0.14	-22.27	43.14	-13.88	50.22	-10.42	8.92	-56.49	25.28	43.36	-9.54	29.67	-58.44	1.31	0.96	22.27	-43.14	-1.12
0.15	-22.115	42.395	-13.965	49.555	-9.365	8.795	-56.29	25.635	44.6	-9.015	29.745	-59.775	1.765	0.96	22.115	-42.395	-1.035
0.16	-21.96	41.65	-14.05	48.89	-8.31	8.67	-56.09	25.99	45.84	-8.49	29.82	-61.11	2.22	0.96	21.96	-41.65	-0.95
0.17	-21.66	40.845	-14.225	48.11	-7.315	8.755	-55.7	26.45	46.975	-7.765	30.32	-62.205	2.8	0.96	21.66	-40.845	-0.775
0.18	-21.36	40.04	-14.4	47.33	-6.32	8.84	-55.31	26.91	48.11	-7.04	30.82	-63.3	3.38	0.96	21.36	-40.04	-0.6
0.19	-20.94	39.31	-14.59	46.37	-5.42	9.015	-54.71	27.435	49.135	-6.265	31.385	-64.08	4.045	0.96	20.94	-39.31	-0.41
0.2	-20.52	38.58	-14.78	45.41	-4.52	9.19	-54.11	27.96	50.16	-5.49	31.95	-64.86	4.71	0.96	20.52	-38.58	-0.22
0.21	-20.05	38.03	-14.89	44.21	-3.695	9.26	-53.305	28.46	51.09	-4.755	32.46	-65.395	5.3	0.96	20.05	-38.03	-0.11
0.22	-19.58	37.48	-15	43.01	-2.87	9.33	-52.5	28.96	52.02	-4.02	32.97	-65.93	5.89	0.96	19.58	-37.48	0
0.23	-19.14	37.065	-14.97	41.545	-2.055	9.275	-51.495	29.215	52.845	-3.325	33.4	-66.295	6.28	0.96	19.14	-37.065	-0.03
0.24	-18.7	36.65	-14.94	40.08	-1.24	9.22	-50.49	29.47	53.67	-2.63	33.83	-66.66	6.67	0.96	18.7	-36.65	-0.06
0.25	-18.275	36.165	-14.875	38.525	-0.36	9.255	-49.395	29.475	54.395	-1.975	34.165	-66.91	6.815	0.96	18.275	-36.165	-0.125
0.26	-17.85	35.68	-14.81	36.97	0.52	9.29	-48.3	29.48	55.12	-1.32	34.5	-67.16	6.96	0.96	17.85	-35.68	-0.19
0.27	-17.465	35.06	-14.75	35.39	1.475	9.425	-47.165	29.27	55.78	-0.74	34.74	-67.295	6.94	0.96	17.465	-35.06	-0.25
0.28	-17.08	34.44	-14.69	33.81	2.43	9.56	-46.03	29.06	56.44	-0.16	34.98	-67.43	6.92	0.96	17.08	-34.44	-0.31
0.29	-16.76	33.735	-14.635	32.23	3.43	9.755	-44.895	28.745	57.075	0.195	35.04	-67.305	6.845	0.96	16.76	-33.735	-0.365
0.3	-16.44	33.03	-14.58	30.65	4.43	9.95	-43.76	28.43	57.71	0.55	35.1	-67.18	6.77	0.96	16.44	-33.03	-0.42
0.31	-16.21	32.335	-14.5	29.095	5.4	10.17	-42.665	28.1	58.255	0.77	35.22	-66.655	6.57	0.96	16.21	-32.335	-0.5
0.32	-15.98	31.64	-14.42	27.54	6.37	10.39	-41.57	27.77	58.8	0.99	35.34	-66.13	6.37	0.96	15.98	-31.64	-0.58
0.33	-15.825	31.14	-14.295	26.045	7.135	10.59	-40.6	27.395	59.1	1.21	35.605	-65.16	5.93	0.96	15.825	-31.14	-0.705
0.34	-15.67	30.64	-14.17	24.55	7.9	10.79	-39.63	27.02	59.4	1.43	35.87	-64.19	5.49	0.96	15.67	-30.64	-0.83
0.35	-15.525	30.45	-14.015	23.215	8.275	11.095	-38.91	26.385	59.325	1.775	36.265	-62.74	4.785	0.96	15.525	-30.45	-0.985
0.36	-15.38	30.26	-13.86	21.88	8.65	11.4	-38.19	25.75	59.25	2.12	36.66	-61.29	4.08	0.96	15.38	-30.26	-1.14
0.37	-15.23	30.25	-13.73	20.785	8.77	11.895	-37.775	24.96	58.735	2.645	37.105	-59.385	3.17	0.96	15.23	-30.25	-1.27
0.38	-15.08	30.24	-13.6	19.69	8.89	12.39	-37.36	24.17	58.22	3.17	37.55	-57.48	2.26	0.96	15.08	-30.24	-1.4
0.39	-14.97	30.32	-13.515	18.915	8.875	13.045	-37.335	23.475	57.325	3.775	37.905	-55.24	1.33	0.96	14.97	-30.32	-1.485
0.4	-14.86	30.4	-13.43	18.14	8.86	13.7	-37.31	22.78	56.43	4.38	38.26	-53	0.4	0.96	14.86	-30.4	-1.57
0.41	-14.83	30.54	-13.395	17.725	8.82	14.405	-37.71	22.375	55.47	4.9	38.105	-50.945	-0.26	0.96	14.83	-30.54	-1.605
0.42	-14.8	30.68	-13.36	17.31	8.78	15.11	-38.11	21.97	54.51	5.42	37.95	-48.89	-0.92	0.96	14.8	-30.68	-1.64
0.43	-14.885	30.905	-13.38	17.28	8.76	15.675	-38.925	21.975	53.575	5.87	37.135	-47.355	-0.99	0.96	14.885	-30.905	-1.62
0.44	-14.97	31.13	-13.4	17.25	8.74	16.24	-39.74	21.98	52.64	6.32	36.32	-45.82	-1.06	0.96	14.97	-31.13	-1.6
0.45	-15.175	31.59	-13.51	17.695	8.665	16.415	-40.905	22.235	51.72	6.785	35.13	-44.805	-0.52	0.96	15.175	-31.59	-1.49
0.46	-15.38	32.05	-13.62	18.14	8.59	16.59	-42.07	22.49	50.8	7.25	33.94	-43.79	0.02	0.96	15.38	-32.05	-1.38
0.47	-15.565	32.815	-13.905	19.05	8.23	16.4	-43.34	22.705	49.895	7.97	33.02	-43.15	0.985	0.96	15.565	-32.815	-1.095
0.48	-15.75	33.58	-14.19	19.96	7.87	16.21	-44.61	22.92	48.99	8.69	32.1	-42.51	1.95	0.96	15.75	-33.58	-0.81
0.49	-15.87	34.365	-14.71	21.325	7.275	15.93	-45.88	23.145	48.115	10.075	32.48	-41.94	2.985	0.96	15.87	-34.365	-0.29
0.5	-15.99	35.15	-15.23	22.69	6.68	15.65	-47.15	23.37	47.24	11.46	32.86	-41.37	4.02	0.96	15.99	-35.15	0.23
0.51	-16.095	35.695	-15.965	24.485	6.03	15.51	-48.375	23.62	47.28	10.91	34.38	-42.235	5.505	0.96	16.095	-35.695	0.965
0.52	-16.2	36.24	-16.7	26.28	5.38	15.37	-49.6	23.87	47.32	10.36	35.9	-43.1	6.99	0.96	16.2	-36.24	1.7
0.53	-16.35	36.35	-17.555	28.425	4.865	15.525	-50.755	24.12	47.4	10.615	35.98	-43.525	7.855	0.96	16.35	-36.35	2.555
0.54	-16.5	36.46	-18.41	30.57	4.35	15.68	-51.91	24.37	47.48	10.87	36.06	-43.95	8.72	0.96	16.5	-36.46	3.41
0.55	-16.725	36.12	-19.23	32.87	4.08	16.14	-52.975	24.425	47.815	10.73	36.1	-44.225	9.01	0.96	16.725	-36.12	4.23
0.56	-16.95	35.78	-20.05	35.17	3.81	16.6	-54.04	24.48	48.15	10.59	36.14	-44.5	9.3	0.96	16.95	-35.78	5.05
0.57	-17.275	35.185	-20.63	37.245	3.74	17.235	-54.895	24.325	48.52	10.06	35.81	-44.52	9.285	0.96	17.275	-35.185	5.63
0.58	-17.6	34.59	-21.21	39.32	3.67	17.87	-55.75	24.17	48.89	9.53	35.48	-44.54	9.27	0.96	17.6	-34.59	6.21
0.59	-18.02	33.96	-21.575	41.115	3.67	18.315	-56.51	24.075	49.17	8.75	34.725	-44.295	9.175	0.96	18.02	-33.96	6.575
0.6	-18.44	33.33	-21.94	42.91	3.67	18.76	-57.27	23.98	49.45	7.97	33.97	-44.05	9.08	0.96	18.44	-33.33	6.94
0.61	-18.905	32.725	-22.165	44.535	3.68	18.94	-58.12	23.965	49.57	7.16	32.985	-43.57	9.045	0.96	18.905	-32.725	7.165
0.62	-19.37	32.12	-22.39	46.16	3.69	19.12	-58.97	23.95	49.69	6.35	32	-43.09	9.01	0.96	19.37	-32.12	7.39
0.63	-19.845	31.56	-22.525	47.74	3.655	19.125	-60.06	23.945	49.605	5.765	31.395	-42.335	9.03	0.96	19.845	-31.56	7.525
0.64	-20.32	31	-22.66	49.32	3.62	19.13	-61.15	23.94	49.52	5.18	30.79	-41.58	9.05	0.96	20.32	-31	7.66
0.65	-20.745	30.49	-22.73	50.94	3.5	19.19	-62.565	23.82	49.2	5.005	30.665	-40.81	9.055	0.96	20.745	-30.49	7.73
0.66	-21.17	29.98	-22.8	52.56	3.38	19.25	-63.98	23.7	48.88	4.83	30.54	-40.04	9.06	0.96	21.17	-29.98	7.8
0.67	-21.5	29.6	-22.735	54.2	3.055	19.73	-65.575	23.46	48.35	4.935	30.695	-39.295	8.995	0.96	21.5	-29.6	7.735
0.68	-21.83	29.22	-22.67	55.84	2.73	20.21	-67.17	23.22	47.82	5.04	30.85	-38.55	8.93	0.96	21.83	-29.22	7.67
0.69	-22.07	29.04	-22.42	57.25	2.115	20.94	-68.465	23.025	47.11	5.29	31.055	-37.81	8.78	0.96	22.07	-29.04	7.42
0.7	-22.31	28.86	-22.17	58.66	1.5	21.67	-69.76	22.83	46.4	5.54	31.26	-37.07	8.63	0.96	22.31	-28.86	7.17
0.71	-22.505	28.875	-21.745	59.765	0.6	22.205	-70.59	22.62	45.55	5.78	31.25	-36.295	8.405	0.96	22.505	-28.875	6.745
0.72	-22.7	28.89	-21.32	60.87	-0.3	22.74	-71.42	22.41	44.7	6.02	31.24	-35.52	8.18	0.96	22.7	-28.89	6.32
0.73	-22.86	29.065	-20.775	61.67	-1.445	22.85	-71.775	22.15	43.785	6.11	30.74	-34.71	7.925	0.96	22.86	-29.065	5.775
0.74	-23.02	29.24	-20.23	62.47	-2.59	22.96	-72.13	21.89	42.87	6.2	30.24	-33.9	7.67	0.96	23.02	-29.24	5.23
0.75	-23.17	29.51	-19.62	63.02	-3.865	22.56	-72.05	21.58	42.06	6.045	29.055	-33.22	7.545	0.96	23.17	-29.51	4.62
0.76	-23.32	29.78	-19.01	63.57	-5.14	22.16	-71.97	21.27	41.25	5.89	27.87	-32.54	7.42	0.96	23.32	-29.78	4.01
0.77	-23.485	30.06	-18.4	63.91	-6.365	21.325	-71.51	21.01	40.65	5.67	26.465	-32.185	7.45	0.96	23.485	-30.06	3.4
0.78	-23.65	30.34	-17.79	64.25	-7.59	20.49	-71.05	20.75	40.05	5.45	25.06	-31.83	7.48	0.96	23.65	-30.34	2.79
0.79	-23.84	30.59	-17.235	64.35	-8.525	19.55	-70.045	20.495	39.585	5.175	23.89	-31.755	7.565	0.96	23.84	-30.59	2.235
0.8	-24.03	30.84	-16.68	64.45	-9.46	18.61	-69.04	20.24	39.12	4.9	22.72	-31.68	7.65	0.96	24.03	-30.84	1.68
0.81	-24.225	31.105	-16.165	64.35	-10.155	17.8	-67.575	19.77	38.695	4.515	22.03	-31.86	7.675	0.96	24.225	-31.105	1.165
0.82	-24.42	31.37	-15.65	64.25	-10.85	16.99	-66.11	19.3	38.27	4.13	21.34	-32.04	7.7	0.96	24.42	-31.37	0.65
0.83	-24.58	31.695	-15.18	63.965	-11.36	16.305	-64.375	18.635	37.815	3.575	21.21	-32.41	7.555	0.96	24.58	-31.695	0.18
0.84	-24.74	32.02	-14.71	63.68	-11.87	15.62	-62.64	17.97	37.36	3.02	21.08	-32.78	7.41	0.96	24.74	-32.02	-0.29
0.85	-24.83	32.42	-14.28	63.215	-12.255	15.02	-60.835	17.25	36.84	2.22	21.475	-33.29	6.975	0.96	24.83	-32.42	-0.72
0.86	-24.92	32.82	-13.85	62.75	-12.64	14.42	-59.03	16.53	36.32	1.42	21.87	-33.8	6.54	0.96	24.92	-32.82	-1.15
0.87	-24.91	33.32	-13.48	62.11	-12.935	13.86	-57.36	15.93	35.83	0.495	22.605	-34.31	5.935	0.96	24.91	-33.32	-1.52
0.88	-24.9	33.82	-13.11	61.47	-13.23	13.3	-55.69	15.33	35.34	-0.43	23.34	-34.82	5.33	0.96	24.9	-33.82	-1.89
0.89	-24.735	34.435	-12.835	60.66	-13.48	12.795	-54.26	14.945	34.945	-1.29	24.025	-35.35	4.745	0.96	24.735	-34.435	-2.165
0.9	-24.57	35.05	-12.56	59.85	-13.73	12.29	-52.83	14.56	34.55	-2.15	24.71	-35.88	4.16	0.96	24.57	-35.05	-2.44
0.91	-24.23	35.775	-12.45	58.9	-14.02	11.985	-51.435	14.19	34.27	-2.885	25.115	-36.5	3.675	0.96	24.23	-35.775	-2.55
0.92	-23.89	36.5	-12.34	57.95	-14.31	11.68	-50.04	13.82	33.99	-3.62	25.52	-37.12	3.19	0.96	23.89	-36.5	-2.66
0.93	-23.44	37.265	-12.405	56.88	-14.61	11.575	-48.575	13.685	33.82	-4.24	25.52	-37.86	2.875	0.96	23.44	-37.265	-2.595
0.94	-22.99	38.03	-12.47	55.81	-14.91	11.47	-47.11	13.55	33.65	-4.86	25.52	-38.6	2.56	0.96	22.99	-38.03	-2.53
0.95	-22.525	38.785	-12.65	54.72	-15.145	11.47	-45.78	13.895	33.58	-5.425	25.135	-39.445	2.455	0.96	22.525	-38.785	-2.35
0.96	-22.06	39.54	-12.83	53.63	-15.38	11.47	-44.45	14.24	33.51	-5.99	24.75	-40.29	2.35	0.96	22.06	-39.54	-2.17
0.97	-21.715	40.225	-13	52.655	-15.43	11.44	-43.595	15.125	33.545	-6.51	24.245	-41.165	2.4	0.96	21.715	-40.225	-2
0.98	-21.37	40.91	-13.17	51.68	-15.48	11.41	-42.74	16.01	33.58	-7.03	23.74	-42.04	2.45	0.96	21.37	-40.91	-1.83
0.99	-21.29	41.495	-13.13	51.015	-15.225	11.155	-42.75	17.21	33.64	-7.535	23.415	-42.84	2.425	0.96	21.29	-41.495	-1.87
1	-21.21	42.08	-13.09	50.35	-14.97	10.9	-42.76	18.41	33.7	-8.04	23.09	-43.64	2.4	0.96	21.21	-42.08	-1.91
